<?xml version="1.0" encoding="UTF-8"?>
<svg width="512" height="512" viewBox="0 0 512 512" xmlns="http://www.w3.org/2000/svg">
  <!-- Background -->
  <rect width="512" height="512" fill="#E65100"/>
  <!-- Tools Icon (simplified wrench) -->
  <g transform="translate(128, 128) scale(1.0)" fill="white">
    <!-- Wrench shape -->
    <path d="M240 32c-13.3 0-24 10.7-24 24v24H24c-13.3 0-24 10.7-24 24v64c0 13.3 10.7 24 24 24h192v24c0 13.3 10.7 24 24 24s24-10.7 24-24V56c0-13.3-10.7-24-24-24z"/>
    <path d="M128 176c-35.3 0-64 28.7-64 64v32c0 8.8 7.2 16 16 16h96c8.8 0 16-7.2 16-16v-32c0-35.3-28.7-64-64-64z"/>
  </g>
  <!-- H letter -->
  <text x="256" y="380" font-family="Arial, sans-serif" font-size="180" font-weight="bold" fill="white" text-anchor="middle">H</text>
</svg>
