<svg xmlns="http://www.w3.org/2000/svg" viewBox="0 0 120 120" fill="none" role="img" aria-label="نادينا">
  <g transform="translate(60 62)">
    <path d="M0 0 C 10 -12 10 -33 0 -48 C -10 -33 -10 -12 0 0 Z" fill="#09B269"/>
    <path d="M0 0 C 10 -12 10 -33 0 -48 C -10 -33 -10 -12 0 0 Z" fill="#2CCB84" transform="rotate(52)"/>
    <path d="M0 0 C 10 -12 10 -33 0 -48 C -10 -33 -10 -12 0 0 Z" fill="#007567" transform="rotate(104)"/>
    <path d="M0 0 C 10 -12 10 -33 0 -48 C -10 -33 -10 -12 0 0 Z" fill="#0A5566" transform="rotate(156)"/>
    <path d="M0 0 C 10 -12 10 -33 0 -48 C -10 -33 -10 -12 0 0 Z" fill="#2F6FB0" transform="rotate(208)"/>
    <path d="M0 0 C 10 -12 10 -33 0 -48 C -10 -33 -10 -12 0 0 Z" fill="#1A8296" transform="rotate(260)"/>
    <path d="M0 0 C 10 -12 10 -33 0 -48 C -10 -33 -10 -12 0 0 Z" fill="#3DCB8A" transform="rotate(312)"/>
    <circle cx="0" cy="0" r="8" fill="#09B269"/>
  </g>
</svg>
