<svg xmlns="http://www.w3.org/2000/svg" viewBox="0 0 128 128">
  <circle cx="64" cy="64" r="50" fill="white" fill-opacity="0.2"/>
  <path d="M64 30c-18.8 0-34 15.2-34 34s15.2 34 34 34 34-15.2 34-34-15.2-34-34-34zm0 6c15.5 0 28 12.5 28 28s-12.5 28-28 28-28-12.5-28-28 12.5-28 28-28z" fill="white"/>
  <path d="M64 48c-8.8 0-16 7.2-16 16s7.2 16 16 16 16-7.2 16-16-7.2-16-16-16zm0 26c-5.5 0-10-4.5-10-10s4.5-10 10-10 10 4.5 10 10-4.5 10-10 10z" fill="white"/>
  <circle cx="64" cy="64" r="5" fill="white"/>
</svg>
